<?xml version="1.0" encoding="utf-8"?>
<!-- Generator: Adobe Illustrator 24.2.0, SVG Export Plug-In . SVG Version: 6.00 Build 0)  -->
<svg version="1.1" id="Layer_1" xmlns="http://www.w3.org/2000/svg" xmlns:xlink="http://www.w3.org/1999/xlink" x="0px" y="0px"
	 viewBox="0 0 1000 1000" style="enable-background:new 0 0 1000 1000;" xml:space="preserve">
<style type="text/css">
	.st0{fill:#049FD9;}
</style>
<g transform="matrix(1.66667 0 0 1.66667 100 105.006)">
	<path class="st0" d="M236.4,282.3c-0.7-0.2-10.9-2.8-21.7-2.8c-20.6,0-32.9,11.1-32.9,27.6c0,14.6,10.4,21.9,22.8,25.8
		c1.4,0.5,3.4,1.1,4.8,1.5c5.5,1.7,9.9,4.3,9.9,8.8c0,5-5.1,8.2-16.2,8.2c-9.7,0-19.1-2.8-21.1-3.3v20.3c1.1,0.2,12.2,2.4,24.1,2.4
		c17.1,0,36.6-7.5,36.6-29.6c0-10.8-6.6-20.7-21.1-25.3l-6.2-2c-3.7-1.2-10.2-3-10.2-8.4c0-4.2,4.9-7.2,13.8-7.2
		c7.7,0,17.1,2.6,17.4,2.7V282.3z M424.8,325.2c0,12.9-9.8,23.3-23.1,23.3c-13.2,0-23-10.4-23-23.3c0-12.8,9.8-23.2,23-23.2
		C415,302,424.8,312.4,424.8,325.2 M401.8,279.5c-27.2,0-46.7,20.5-46.7,45.7c0,25.3,19.5,45.8,46.7,45.8
		c27.2,0,46.7-20.5,46.7-45.8C448.5,300,429,279.5,401.8,279.5 M151.9,369.4h-22.3v-88.4h22.3"/>
	<path class="st0" d="M98.9,282.7c-2.1-0.6-9.8-3.2-20.3-3.2c-27.1,0-47,19.3-47,45.7c0,28.5,22,45.8,47,45.8
		c10,0,17.6-2.4,20.3-3.1v-23.7c-1,0.5-8.2,4.7-18.7,4.7c-14.9,0-24.4-10.5-24.4-23.6c0-13.5,10-23.6,24.4-23.6
		c10.7,0,17.8,4.2,18.7,4.7"/>
	<path class="st0" d="M331.6,282.7c-2.1-0.6-9.8-3.2-20.3-3.2c-27.1,0-47,19.3-47,45.7c0,28.5,22,45.8,47,45.8
		c10,0,17.6-2.4,20.3-3.1v-23.7c-1,0.5-8.2,4.7-18.7,4.7c-14.9,0-24.4-10.5-24.4-23.6c0-13.5,10-23.6,24.4-23.6
		c10.7,0,17.8,4.2,18.7,4.7"/>
	<path class="st0" d="M129.5,114c0-6.1-5-11-11.1-11c-6.1,0-11.1,4.9-11.1,11v117.3c0,6.1,5,11.1,11.1,11.1
		c6.1,0,11.1-4.9,11.1-11.1V114z M68.7,155.7c0-6.1-5-11-11.1-11s-11.1,4.9-11.1,11v53.6c0,6.1,5,11.1,11.1,11.1s11.1-4.9,11.1-11.1
		V155.7z M7.9,186.1c0-6.1-5-11-11.1-11c-6.1,0-11.1,4.9-11.1,11v23.2c0,6.1,5,11.1,11.1,11.1c6.1,0,11.1-4.9,11.1-11.1"/>
	<path class="st0" d="M107.4,114c0-6.1,5-11,11.1-11c6.1,0,11.1,4.9,11.1,11v117.3c0,6.1-5,11.1-11.1,11.1
		c-6.1,0-11.1-4.9-11.1-11.1V114z M168.2,155.7c0-6.1,5-11,11.1-11s11.1,4.9,11.1,11v53.6c0,6.1-5,11.1-11.1,11.1
		s-11.1-4.9-11.1-11.1V155.7z M229,186.1c0-6.1,5-11,11.1-11c6.1,0,11.1,4.9,11.1,11v23.2c0,6.1-5,11.1-11.1,11.1
		c-6.1,0-11.1-4.9-11.1-11.1"/>
	<g transform="matrix(-1 0 0 1 216 0)">
		<path class="st0" d="M-134.5,114c0-6.1-5-11-11.1-11c-6.1,0-11.1,4.9-11.1,11v117.3c0,6.1,5,11.1,11.1,11.1
			c6.1,0,11.1-4.9,11.1-11.1V114z M-195.3,155.7c0-6.1-5-11-11.1-11s-11.1,4.9-11.1,11v53.6c0,6.1,5,11.1,11.1,11.1
			s11.1-4.9,11.1-11.1V155.7z M-256.1,186.1c0-6.1-5-11-11.1-11c-6.1,0-11.1,4.9-11.1,11v23.2c0,6.1,5,11.1,11.1,11.1
			c6.1,0,11.1-4.9,11.1-11.1"/>
		<path class="st0" d="M-156.6,114c0-6.1,5-11,11.1-11c6.1,0,11.1,4.9,11.1,11v117.3c0,6.1-5,11.1-11.1,11.1
			c-6.1,0-11.1-4.9-11.1-11.1V114z M-95.8,155.7c0-6.1,5-11,11.1-11c6.1,0,11.1,4.9,11.1,11v53.6c0,6.1-5,11.1-11.1,11.1
			c-6.1,0-11.1-4.9-11.1-11.1V155.7z M-35,186.1c0-6.1,5-11,11.1-11c6.1,0,11.1,4.9,11.1,11v23.2c0,6.1-5,11.1-11.1,11.1
			c-6.1,0-11.1-4.9-11.1-11.1"/>
	</g>
</g>
</svg>
