<svg id="Layer_1" data-name="Layer 1" xmlns="http://www.w3.org/2000/svg" viewBox="0 0 280 300"><defs><style>.cls-1{fill:#0f113e;}.cls-1,.cls-2,.cls-3{fill-rule:evenodd;}.cls-2,.cls-4{fill:#4b3c83;}.cls-3{fill:#a89dc3;}</style></defs><title>PRINCE2 Logo</title><path class="cls-1" d="M82.09,159A9,9,0,0,0,92.2,156.2,7.31,7.31,0,0,1,84.39,158c-4.21-1.68-5.7-5.11-4.49-8.87a6.94,6.94,0,0,1,8.85-4.76,7.63,7.63,0,0,1,5.28,6,9.38,9.38,0,0,0-6.59-8.16c-4.9-1.57-10.16.93-11.63,5.54s1.47,9.43,6.28,11.23"/><path class="cls-2" d="M90.75,149.76a7.71,7.71,0,0,1-7.14,8.18,8,8,0,0,1-7.33-4.12,9.81,9.81,0,0,0,9.38,5.76,9.51,9.51,0,0,0,8.8-10.06c-.38-5.21-4-4-3.71.24"/><path class="cls-1" d="M81.66,162.7A12.57,12.57,0,0,0,93,154a10.12,10.12,0,1,1-.36-8.61,12.5,12.5,0,1,0-11,17.3"/><path class="cls-3" d="M95.39,148.66a12,12,0,0,0-1.67-5.4c-.38.55-.71,1-1,1.43a9.43,9.43,0,0,0-16.77,2.81,7.66,7.66,0,0,1,6.63-4.88c9.09,0,8.28,8.49,6,12.16-2,3.25-5.28,5.66-8.92,5.82a10.87,10.87,0,0,1-10.16-6,13.42,13.42,0,0,0,13,8.45,13.7,13.7,0,0,0,12.92-14.42"/><path class="cls-2" d="M95.91,153.63c.12-.9.24-1.88.31-2.88a13.84,13.84,0,0,0-27.36-2.92c1.57-4.88,5.78-8.38,10.75-8.38,6.33,0,11.45,5.64,11.45,12.59,0,1.33-.76,11.47,8.51,10.51-.61-.19-5-.14-3.66-8.92"/><path class="cls-4" d="M104.74,157.53h-2.43V142.45h8.78c3.92,0,5.9,1.5,5.9,4.47s-2,4.48-5.9,4.48h-6.35v6.13Zm0-8.37h5.9c3.35,0,4-.86,4-2.24s-.67-2.26-4-2.26h-5.9Z"/><path class="cls-4" d="M134,157.53h-3l-4.64-6.37H121.2v6.37h-2.4V142.45h8.66c5,0,6,2.38,6,4.36,0,2.73-2.17,4-4.24,4.25Zm-12.8-8.61h5.83c3,0,4.07-.57,4.07-2.14s-1.09-2.12-4.07-2.12h-5.83v4.26Z"/><rect class="cls-4" x="136.4" y="142.45" width="2.43" height="15.08"/><polygon class="cls-4" points="157.55 157.53 155.32 157.53 144.28 145.24 144.28 157.53 141.92 157.53 141.92 142.45 144.9 142.45 155.13 153.75 155.13 142.45 157.55 142.45 157.55 157.53"/><path class="cls-4" d="M168.21,157.89c-5.28,0-8.56-3-8.56-7.87s3.28-7.93,8.54-7.93c3.71,0,6.66,1.62,7.85,4.33l.14.31-2.14,1-.14-.33c-1.12-2.6-3.71-3.14-5.69-3.14-3.92,0-6.09,2.14-6.09,6,0,3.4,2.33,5.43,6.26,5.43a6.05,6.05,0,0,0,5.73-3.22l.17-.28,2.16,1.05-.16.3c-1.55,3-4.17,4.38-8.07,4.38"/><polygon class="cls-4" points="192 157.53 178.23 157.53 178.23 142.45 191.76 142.45 191.76 144.69 180.65 144.69 180.65 148.59 189.93 148.59 189.93 150.83 180.65 150.83 180.65 155.3 192 155.3 192 157.53"/><path class="cls-4" d="M206.49,157.53H193.38v-1.76l.05-.07c.36-.69,1.43-2.78,5.28-4.71.69-.35,1.33-.64,1.93-.9,2.26-1,3.49-1.6,3.49-3.36,0-1.49-1.52-2.49-3.78-2.49-3.07,0-4.14,1.52-4.73,2.85l-.15.31-2-1,.1-.29c.24-.69,1.62-4.07,6.61-4.07,4,0,6.33,1.67,6.33,4.57,0,3.21-2.43,4.26-4.76,5.28l-.12.05c-2.28,1-4,1.76-5.4,3.4h10.28Z"/><path class="cls-4" d="M211.37,144.12a1.72,1.72,0,1,1-1.72-1.67,1.68,1.68,0,0,1,1.72,1.67m-3,0a1.3,1.3,0,0,0,1.31,1.33,1.32,1.32,0,0,0,0-2.64,1.26,1.26,0,0,0-1.28,1.31m1,.85H209v-1.66a3.29,3.29,0,0,1,.64-.05.89.89,0,0,1,.58.14.44.44,0,0,1,.16.36.42.42,0,0,1-.33.4v0c.17.05.24.19.28.4a2.2,2.2,0,0,0,.12.41h-.4a1.74,1.74,0,0,1-.12-.41c0-.16-.14-.26-.36-.26h-.19V145Zm0-.92h.19c.22,0,.38-.08.38-.24s-.12-.26-.35-.26a.65.65,0,0,0-.22,0v.48Z"/></svg>